<svg xmlns="http://www.w3.org/2000/svg" xmlns:xlink="http://www.w3.org/1999/xlink" width="172.496" height="34.997" viewBox="0 0 172.496 34.997"><defs><style>.a{fill:#fff;}.b{clip-path:url(#a);}</style><clipPath id="a"><rect width="120.951" height="34.997"/></clipPath></defs><g transform="translate(3.392 -54.707)"><g transform="translate(-3.392 57.628)"><path class="a" d="M76.35,10v8.9a9.537,9.537,0,0,1-.267,2.347,4.15,4.15,0,0,1-3.721,3.321,14.886,14.886,0,0,1-3.1.021c-.215-.01-.287-.1-.287-.308q.015-1.461,0-2.922c0-.277.133-.328.369-.318a5.274,5.274,0,0,0,1.271-.01A1.427,1.427,0,0,0,71.9,19.693a9.827,9.827,0,0,0,.092-1.456V.575c0-.584,0-.584.6-.584,1.066,0,2.132.021,3.2-.01.431-.01.574.1.564.554C76.35,3.7,76.35,6.848,76.35,10Z" transform="translate(-40.39 0.021)"/><path class="a" d="M41.111,14.515V5.883a9.361,9.361,0,0,1,.328-2.665A4.179,4.179,0,0,1,45.272.081a19.162,19.162,0,0,1,2.87,0c.256.01.338.113.338.359q-.015,1.415,0,2.829c0,.287-.1.379-.379.359a7.835,7.835,0,0,0-1.1-.01,1.453,1.453,0,0,0-1.466,1.4,8.707,8.707,0,0,0-.092,1.363q0,8.857.01,17.714c0,.472-.123.595-.584.574-1.076-.031-2.163-.031-3.239,0-.41.01-.554-.092-.543-.533C41.121,20.932,41.111,17.723,41.111,14.515Z" transform="translate(-41.09 0.022)"/><path class="a" d="M65.771,11.142a4.868,4.868,0,0,1-1.189,2.993,16.349,16.349,0,0,1-5.033,4.09.975.975,0,0,1-.974.031,14.493,14.493,0,0,1-5.689-5,3.874,3.874,0,0,1,.328-4.705,3.72,3.72,0,0,1,5.413.01c.379.431.39.42.759.01a3.592,3.592,0,0,1,4.049-.923A3.641,3.641,0,0,1,65.771,11.142Z" transform="translate(-40.809 0.206)"/></g><g transform="translate(48.153 54.707)"><g class="b"><path class="a" d="M80.964,45.82c-5.146,0-8.724,3.7-8.724,8.99a8.8,8.8,0,0,0,9.226,8.99,11.166,11.166,0,0,0,6.684-2.183.382.382,0,0,0,.1-.472L86.96,58.767a.379.379,0,0,0-.543-.133A8.5,8.5,0,0,1,81.773,60.2a4.918,4.918,0,0,1-5.1-4.357.378.378,0,0,1,.369-.431H88.16a.378.378,0,0,0,.379-.338c.031-.318.072-.8.072-1.107,0-4.541-2.7-8.15-7.647-8.15m-3.772,7.073a.373.373,0,0,1-.369-.461,4.1,4.1,0,0,1,4.039-3.311,3.38,3.38,0,0,1,3.311,3.362.379.379,0,0,1-.379.41Z" transform="translate(1.813 -36.246)"/></g><g class="b"><path class="a" d="M95.114,58.085v-17.8a.378.378,0,0,0-.379-.379H91.249a.378.378,0,0,0-.379.379V58.362c0,4.674,2.522,5.587,5.249,5.587.543,0,1.189-.041,1.579-.072a.373.373,0,0,0,.349-.379V60.8a.381.381,0,0,0-.39-.379c-.246.01-.554.021-.8.021-1.4,0-1.743-.8-1.743-2.358" transform="translate(2.281 -36.394)"/></g><g class="b"><path class="a" d="M110.863,45.82a6.14,6.14,0,0,0-5.525,2.891h-.072s.031-.369.031-.779v-.1c0-.871-.543-1.62-2.122-1.62H99.136a.378.378,0,0,0-.379.379v2.45a.378.378,0,0,0,.379.379H100.3a1.12,1.12,0,0,1,1.117,1.117V65.1h0v.236h0c0,1.558-.338,2.378-1.763,2.378-.246,0-.564-.01-.8-.021a.375.375,0,0,0-.39.379V70.8a.387.387,0,0,0,.349.379c.39.031,1.046.072,1.589.072,2.706,0,5.207-.892,5.289-5.4h0v-.83h0V62.857a9.761,9.761,0,0,0-.1-1.476h.072a5.992,5.992,0,0,0,4.951,2.419c4.51,0,7.842-3.537,7.842-8.99.021-5.32-2.942-8.99-7.6-8.99m-1,14.372c-2.8,0-4.275-2.624-4.275-5.289,0-3.8,2.091-5.423,4.305-5.423,2.522,0,4.275,2.122,4.275,5.382,0,3.414-1.948,5.33-4.305,5.33" transform="translate(2.471 -36.246)"/></g><g class="b"><path class="a" d="M15.007,42.026v2.747h0V54.6a6.485,6.485,0,0,1-.81,3.4,5,5,0,0,1-4.48,2.153,5.122,5.122,0,0,1-4.51-2.122,6.788,6.788,0,0,1-.81-3.4V40.406a.378.378,0,0,0-.379-.379H.379A.378.378,0,0,0,0,40.406V54.645a9.466,9.466,0,0,0,1.784,6.028c1.65,2.122,4.541,3.362,7.945,3.362,3.2,0,6.192-1.107,7.945-3.4a10.3,10.3,0,0,0,1.753-6V43.061h-.031v-.769c0-1.538.349-2.337,1.814-2.337.256,0,.574.01.83.021a.375.375,0,0,0,.39-.379V36.931a.387.387,0,0,0-.349-.379c-.4-.031-1.066-.072-1.63-.072-2.829,0-5.443.9-5.443,5.546" transform="translate(0 -36.48)"/></g><g class="b"><path class="a" d="M49.191,36.48c2.932,0,5.648.912,5.648,5.587v5.9h11.1V36.48H70.5V64.035H65.941V52.543H54.849V64.035H50.278V42.344c0-1.548-.359-2.358-1.886-2.358-.5,0-1.281.031-1.281.031V36.583c.01,0,1.179-.1,2.081-.1" transform="translate(1.182 -36.48)"/></g><g class="b"><path class="a" d="M21.46,50.935V63.411a.378.378,0,0,0,.379.379h3.5a.383.383,0,0,0,.379-.369l.031-2.829V56.42c0-3.1,1.384-6.294,4.408-6.294,2.019,0,2.327,1.579,2.327,3.434v9.851a.385.385,0,0,0,.379.379l3.485-.051a.376.376,0,0,0,.369-.379V56.215c0-3.168,1.445-6.089,4.377-6.089,1.989,0,2.358,1.486,2.358,3.434v9.851a.385.385,0,0,0,.379.379l3.557-.051a.376.376,0,0,0,.369-.379l-.031-2.768V52.75c0-4.51-2.05-6.53-5.525-6.53a6.671,6.671,0,0,0-5.956,3.742H36.17a4.514,4.514,0,0,0-4.777-3.742,6.894,6.894,0,0,0-5.853,3.834h-.072a4.434,4.434,0,0,0,.072-.738v-.779c0-1.21-.738-1.917-2.255-1.917l-.974-.01a.836.836,0,0,0-.841.83Z" transform="translate(0.539 -36.236)"/></g></g></g></svg>